<svg xmlns="http://www.w3.org/2000/svg" width="65.719" height="67" viewBox="0 0 65.719 67">
  <metadata><?xpacket begin="﻿" id="W5M0MpCehiHzreSzNTczkc9d"?>
<x:xmpmeta xmlns:x="adobe:ns:meta/" x:xmptk="Adobe XMP Core 5.6-c138 79.159824, 2016/09/14-01:09:01        ">
   <rdf:RDF xmlns:rdf="http://www.w3.org/1999/02/22-rdf-syntax-ns#">
      <rdf:Description rdf:about=""/>
   </rdf:RDF>
</x:xmpmeta>
                                                                                                    
                                                                                                    
                                                                                                    
                                                                                                    
                                                                                                    
                                                                                                    
                                                                                                    
                                                                                                    
                                                                                                    
                                                                                                    
                                                                                                    
                                                                                                    
                                                                                                    
                                                                                                    
                                                                                                    
                                                                                                    
                                                                                                    
                                                                                                    
                                                                                                    
                                                                                                    
                           
<?xpacket end="w"?></metadata>
<defs>
    <style>
      .cls-1 {
        fill: #161616;
        fill-rule: evenodd;
      }
    </style>
  </defs>
  <path id="download_synerge_data" class="cls-1" d="M311.456,473.152l-54.641.007c-3.155,0-5.534,1.962-5.534,4.565v4.71c0,2.6,2.379,4.564,5.534,4.564h54.642c3.154,0,5.534-1.962,5.534-4.564v-4.717C316.991,475.115,314.611,473.152,311.456,473.152Zm-48.532-7.115a3.906,3.906,0,0,0,4.831-.052l10.481-9.509a3.284,3.284,0,1,0-4.429-4.849l-5.252,4.765v-32.5a3.29,3.29,0,0,0-6.579,0v32.417l-5.106-4.631a3.283,3.283,0,1,0-4.429,4.848Zm35.009-8.582a18.727,18.727,0,1,0-18.792-18.727A18.759,18.759,0,0,0,297.933,457.455Zm1.406-2.724a14.932,14.932,0,0,1-1.578.086A16.2,16.2,0,0,1,286.52,450.3a0.62,0.62,0,0,1,.1-0.96l5.315-3.519a0.625,0.625,0,0,1,.809.1l7,7.772A0.625,0.625,0,0,1,299.339,454.731ZM305.22,453q-0.479.249-.975,0.466a0.628,0.628,0,0,1-.714-0.159l-8.075-8.965a0.619,0.619,0,0,1,.119-0.932l0.847-.561a0.625,0.625,0,0,1,.809.1l8.176,9.077A0.624,0.624,0,0,1,305.22,453Zm4.47-3.4q-0.376.4-.779,0.783a0.624,0.624,0,0,1-.886-0.046l-8.081-8.97a0.621,0.621,0,0,1,.119-0.932l0.88-.583a0.625,0.625,0,0,1,.809.1l7.937,8.811A0.62,0.62,0,0,1,309.69,449.6Zm3.237-16.788a16.073,16.073,0,0,1-.62,13.014,0.625,0.625,0,0,1-1.018.123l-6.824-7.575a0.62,0.62,0,0,1,.119-0.932L312,432.532A0.624,0.624,0,0,1,312.927,432.813Zm-30.419.258A16.1,16.1,0,0,1,300.3,422.642L283.448,433.8A0.628,0.628,0,0,1,282.508,433.071Zm-0.784,8.135a15.847,15.847,0,0,1-.215-2.585c0-.378.031-0.748,0.057-1.119l21.178-14.022a0.639,0.639,0,0,1,.566-0.07,16.155,16.155,0,0,1,3.049,1.481,0.623,0.623,0,0,1,.028,1.053l-23.7,15.691A0.627,0.627,0,0,1,281.724,441.206Zm0.979,3.468a0.626,0.626,0,0,1,.24-0.751l25.464-16.86a0.63,0.63,0,0,1,.787.071,16.251,16.251,0,0,1,2.159,2.638,0.622,0.622,0,0,1-.185.855l-26,17.213a0.625,0.625,0,0,1-.861-0.161A16.1,16.1,0,0,1,282.7,444.674Z" transform="translate(-251.281 -420)"/>
</svg>
