<svg xmlns="http://www.w3.org/2000/svg" viewBox="0 0 48.016 65">
  <defs>
    <style>
      .cls-1 {
        fill: #3995fd;
      }
    </style>
  </defs>
  <path id="user" class="cls-1" d="M156.188,225.36l-.074-.151-.137-.059.027-.9c0-.577,0-.929,0-1.134h.036l.011-.356a1.586,1.586,0,0,0-.036.25c0-.041.01-.227.023-.964.13-6.989.7-11.7,3.225-15.1,2.437-3.278,6.357-5.1,13.98-6.483l1.092-.2.611.843c.152.175,1.668,1.811,5.055,1.811s4.9-1.636,5.054-1.811l.648-.892,1.056.247c7.7,1.4,11.642,3.252,14.065,6.6,2.483,3.431,3.034,8.258,3.147,15.437.009.611.014.807.017.866a1.621,1.621,0,0,0-.054-.323l-.052.443.113,0v1.5l-.065.131-.007.184h-.083l-.03.06c-.385.782-4.323,7.64-23.81,7.64S156.573,226.142,156.188,225.36Zm15.991-4.649a54.778,54.778,0,0,0,28.043-3.2c-.278-3.736-.894-6.445-2.268-8.343-1.714-2.37-4.915-3.847-10.947-5.021a11.647,11.647,0,0,1-14.021,0c-10.291,1.993-12.638,4.757-13.231,13.465A57.57,57.57,0,0,0,172.179,220.711Zm31.806,2.656v.02S203.985,223.377,203.985,223.367Zm-47.973-.357v0Zm10.447-38.819C166.459,176.652,168,168,180,168c4.885,0,8.036,1.433,10.056,3.642l.158,0,0,.17c2.807,3.217,3.329,7.985,3.329,12.375,0,8.927-6.074,16.19-13.54,16.19S166.459,193.118,166.459,184.19Zm3.548,0c0,6.955,4.482,12.614,9.991,12.614s9.992-5.659,9.992-12.614a33.936,33.936,0,0,0-.22-4.139c-1.648-.033-10.637-.2-19.473-.2v-.309A31.993,31.993,0,0,0,170.006,184.19Z" transform="translate(-155.976 -168)"/>
</svg>
