<svg xmlns="http://www.w3.org/2000/svg" width="65.719" height="66" viewBox="0 0 65.719 66">
  <metadata><?xpacket begin="﻿" id="W5M0MpCehiHzreSzNTczkc9d"?>
<x:xmpmeta xmlns:x="adobe:ns:meta/" x:xmptk="Adobe XMP Core 5.6-c138 79.159824, 2016/09/14-01:09:01        ">
   <rdf:RDF xmlns:rdf="http://www.w3.org/1999/02/22-rdf-syntax-ns#">
      <rdf:Description rdf:about=""/>
   </rdf:RDF>
</x:xmpmeta>
                                                                                                    
                                                                                                    
                                                                                                    
                                                                                                    
                                                                                                    
                                                                                                    
                                                                                                    
                                                                                                    
                                                                                                    
                                                                                                    
                                                                                                    
                                                                                                    
                                                                                                    
                                                                                                    
                                                                                                    
                                                                                                    
                                                                                                    
                                                                                                    
                                                                                                    
                                                                                                    
                           
<?xpacket end="w"?></metadata>
<defs>
    <style>
      .cls-1 {
        fill: #161616;
        fill-rule: evenodd;
      }
    </style>
  </defs>
  <path id="upload_synerge_data" class="cls-1" d="M116.457,420.992H61.815c-3.155,0-5.534,1.951-5.534,4.539v4.684c0,2.587,2.379,4.538,5.534,4.538l54.642,0.007h0c3.154,0,5.534-1.951,5.534-4.539V425.53C121.991,422.943,119.612,420.992,116.457,420.992Zm-33.221,30.35-10.482-9.455a3.931,3.931,0,0,0-4.831-.052L57.441,451.29a3.241,3.241,0,0,0-.218,4.606,3.312,3.312,0,0,0,4.647.216l5.106-4.606v32.235a3.289,3.289,0,0,0,6.578,0V451.425l5.253,4.739a3.31,3.31,0,0,0,4.647-.217A3.239,3.239,0,0,0,83.236,451.342Zm19.7-1.791a18.622,18.622,0,1,0,18.792,18.622A18.707,18.707,0,0,0,102.932,449.551Zm-15.424,13a16.231,16.231,0,0,1,15.253-10.587,16.485,16.485,0,0,1,2.54.216L88.448,463.272A0.627,0.627,0,0,1,87.508,462.548Zm-0.784,8.089a15.687,15.687,0,0,1-.215-2.571c0-.375.031-0.743,0.057-1.112l21.178-13.944a0.641,0.641,0,0,1,.566-0.069,16.243,16.243,0,0,1,3.049,1.472,0.619,0.619,0,0,1,.028,1.048l-23.7,15.6A0.628,0.628,0,0,1,86.724,470.637Zm17.615,13.449a14.948,14.948,0,0,1-1.578.085,16.248,16.248,0,0,1-11.241-4.494,0.614,0.614,0,0,1,.1-0.954l5.316-3.5a0.627,0.627,0,0,1,.808.1l7,7.728A0.621,0.621,0,0,1,104.339,484.086Zm5.881-1.724q-0.478.247-.975,0.464a0.631,0.631,0,0,1-.714-0.158l-8.076-8.915a0.615,0.615,0,0,1,.119-0.927l0.848-.558a0.629,0.629,0,0,1,.809.1l8.176,9.026A0.618,0.618,0,0,1,110.22,482.362Zm4.47-3.377q-0.377.4-.779,0.778a0.627,0.627,0,0,1-.886-0.045l-8.081-8.92a0.615,0.615,0,0,1,.119-0.927l0.88-.579a0.626,0.626,0,0,1,.808.1l7.938,8.761A0.615,0.615,0,0,1,114.69,478.985Zm3.237-16.694a15.9,15.9,0,0,1-.62,12.941,0.626,0.626,0,0,1-1.018.122l-6.824-7.533a0.613,0.613,0,0,1,.119-0.926L117,462.011A0.626,0.626,0,0,1,117.927,462.291Zm-1.759-2.174-26,17.117a0.63,0.63,0,0,1-.862-0.16,16,16,0,0,1-1.605-2.989,0.621,0.621,0,0,1,.24-0.747l25.465-16.765a0.634,0.634,0,0,1,.787.071,16.183,16.183,0,0,1,2.159,2.623A0.616,0.616,0,0,1,116.168,460.117Z" transform="translate(-56.281 -421)"/>
</svg>
