<svg xmlns="http://www.w3.org/2000/svg" width="58.844" height="66.781" viewBox="0 0 58.844 66.781">
  <metadata><?xpacket begin="﻿" id="W5M0MpCehiHzreSzNTczkc9d"?>
<x:xmpmeta xmlns:x="adobe:ns:meta/" x:xmptk="Adobe XMP Core 5.6-c138 79.159824, 2016/09/14-01:09:01        ">
   <rdf:RDF xmlns:rdf="http://www.w3.org/1999/02/22-rdf-syntax-ns#">
      <rdf:Description rdf:about=""/>
   </rdf:RDF>
</x:xmpmeta>
                                                                                                    
                                                                                                    
                                                                                                    
                                                                                                    
                                                                                                    
                                                                                                    
                                                                                                    
                                                                                                    
                                                                                                    
                                                                                                    
                                                                                                    
                                                                                                    
                                                                                                    
                                                                                                    
                                                                                                    
                                                                                                    
                                                                                                    
                                                                                                    
                                                                                                    
                                                                                                    
                           
<?xpacket end="w"?></metadata>
<defs>
    <style>
      .cls-1 {
        fill: #161616;
        fill-rule: evenodd;
      }
    </style>
  </defs>
  <path id="survey_report_black" data-name="survey report black" class="cls-1" d="M379.2,687.247l-6.414-6.587,0.009-.038a13.534,13.534,0,0,1-3.012,2.97l0.128-.015,6.387,6.587a2.009,2.009,0,0,0,2.876,0A2.057,2.057,0,0,0,379.2,687.247Zm-7.3-7.535a13.552,13.552,0,0,0,2.659-8.1,13.354,13.354,0,1,0-13.353,13.542,13.136,13.136,0,0,0,6.56-1.747,13.317,13.317,0,0,0,1.123-.722A13.509,13.509,0,0,0,371.9,679.712Zm-5.977-.038a9.09,9.09,0,0,1-4.717,1.315A9.231,9.231,0,1,1,365.923,679.674Zm-5.752-1.872a1.936,1.936,0,0,1-1.354-.554l-3.31-3.232a2,2,0,0,1-.052-2.8,1.932,1.932,0,0,1,2.761-.053l1.686,1.646,3.709-5.229a1.935,1.935,0,0,1,2.726-.452,2,2,0,0,1,.445,2.765l-5.025,7.085a1.946,1.946,0,0,1-1.409.816A1.76,1.76,0,0,1,360.171,677.8Zm15.7-53.817H324.956a4,4,0,0,0-3.972,4.028v58.571a4,4,0,0,0,3.972,4.028H340.91a4.028,4.028,0,0,0,0-8.056H328.927V632.041H371.9v21.482a3.972,3.972,0,1,0,7.943,0v-25.51A4,4,0,0,0,375.872,623.985Zm-29.122,20.2h18.367a1.823,1.823,0,0,0,0-3.646H346.75A1.823,1.823,0,0,0,346.75,644.185Zm8.243,12.654a1.81,1.81,0,0,0-1.8-1.823H346.75a1.823,1.823,0,0,0,0,3.645H353.2A1.809,1.809,0,0,0,354.993,656.839Zm-14.035-16.3h-2.9a1.823,1.823,0,0,0,0,3.646h2.9A1.823,1.823,0,0,0,340.958,640.539Zm0,14.477h-2.9a1.823,1.823,0,0,0,0,3.645h2.9A1.823,1.823,0,0,0,340.958,655.016Zm-0.331,14.476h-2.9a1.823,1.823,0,0,0,0,3.646h2.9A1.823,1.823,0,0,0,340.627,669.492Z" transform="translate(-321 -624)"/>
</svg>
