<svg xmlns="http://www.w3.org/2000/svg" width="59.969" height="66.844" viewBox="0 0 59.969 66.844">
  <metadata><?xpacket begin="﻿" id="W5M0MpCehiHzreSzNTczkc9d"?>
<x:xmpmeta xmlns:x="adobe:ns:meta/" x:xmptk="Adobe XMP Core 5.6-c138 79.159824, 2016/09/14-01:09:01        ">
   <rdf:RDF xmlns:rdf="http://www.w3.org/1999/02/22-rdf-syntax-ns#">
      <rdf:Description rdf:about=""/>
   </rdf:RDF>
</x:xmpmeta>
                                                                                                    
                                                                                                    
                                                                                                    
                                                                                                    
                                                                                                    
                                                                                                    
                                                                                                    
                                                                                                    
                                                                                                    
                                                                                                    
                                                                                                    
                                                                                                    
                                                                                                    
                                                                                                    
                                                                                                    
                                                                                                    
                                                                                                    
                                                                                                    
                                                                                                    
                                                                                                    
                           
<?xpacket end="w"?></metadata>
<defs>
    <style>
      .cls-1 {
        fill: #161616;
        fill-rule: evenodd;
      }
    </style>
  </defs>
  <path id="group_wise_survey_black" data-name="group wise survey black" class="cls-1" d="M515.157,385.337h-1.862V378.6a2.818,2.818,0,0,0-2.817-2.82h-2.85V368.8a2.818,2.818,0,0,0-2.817-2.819h-44A2.818,2.818,0,0,0,458,368.8v52.984a2.819,2.819,0,0,0,2.817,2.82h5.711v1.818a2.818,2.818,0,0,0,2.817,2.82H474.1v0.764a2.818,2.818,0,0,0,2.817,2.82h16.395a2.82,2.82,0,0,0,0-5.639H479.73V390.977h32.61v15.408a2.817,2.817,0,1,0,5.633,0V388.157A2.818,2.818,0,0,0,515.157,385.337Zm-51.528,33.631V371.624h38.365v4.154H469.34a2.818,2.818,0,0,0-2.817,2.82v40.37h-2.894Zm13.284-33.631a2.818,2.818,0,0,0-2.817,2.82v35.45h-1.939V381.418h35.5v3.919H476.913Zm16.358,14.7h13.6a1.332,1.332,0,0,0,0-2.664h-13.6A1.332,1.332,0,0,0,493.271,400.039Zm0,10.483H495.7a1.332,1.332,0,0,0,0-2.663h-2.424A1.332,1.332,0,0,0,493.271,410.522Zm-5.3-13.147h-2.144a1.332,1.332,0,0,0,0,2.664h2.144A1.332,1.332,0,0,0,487.976,397.375Zm0,10.577h-2.144a1.332,1.332,0,0,0,0,2.663h2.144A1.332,1.332,0,0,0,487.976,407.952Zm-0.245,10.578h-2.144a1.332,1.332,0,0,0,0,2.663h2.144A1.332,1.332,0,0,0,487.731,418.53Zm29.663,11.7-4.714-4.847,0.007-.028a10,10,0,0,1-2.214,2.186l0.094-.011,4.694,4.846a1.476,1.476,0,0,0,2.088.025l0.026-.025a1.515,1.515,0,0,0,.025-2.14A0.034,0.034,0,0,0,517.394,430.229Zm-9.477-14.819a1.422,1.422,0,0,0-1.981.349l-2.726,3.847-1.239-1.211-0.022-.021a1.419,1.419,0,0,0-2.007.06,1.472,1.472,0,0,0,.038,2.06l2.433,2.378a1.426,1.426,0,0,0,1,.408v0c0.044,0,.087,0,0.13,0a1.434,1.434,0,0,0,1.036-.6l3.693-5.213a1.472,1.472,0,0,0-.327-2.034Zm4.112,9.275h0a9.975,9.975,0,0,0,1.954-5.959,9.815,9.815,0,1,0-9.814,9.963,9.7,9.7,0,0,0,5.647-1.817A9.938,9.938,0,0,0,512.029,424.685Zm-4.393-.028h0a6.677,6.677,0,0,1-3.467.967A6.785,6.785,0,1,1,507.636,424.657Z" transform="translate(-458 -366)"/>
</svg>
