<svg xmlns="http://www.w3.org/2000/svg" viewBox="0 0 62.993 67.994">
  <defs>
    <style>
      .cls-1 {
        fill: #3995fd;
      }
    </style>
  </defs>
  <path id="admin" class="cls-1" d="M96.723,235.924l-3-.032c-5.622-.06-12.8-.139-15.284-.168a3.616,3.616,0,0,1-1.4-.3H72.518a4.512,4.512,0,1,1,0-9.023h2.417V191.282a3.505,3.505,0,0,1,3.562-3.436H80.98v-7.939a3.505,3.505,0,0,1,3.562-3.437h7.149v-5.032A3.505,3.505,0,0,1,95.253,168h10.039a3.5,3.5,0,0,1,3.562,3.436v5.032H116a3.506,3.506,0,0,1,3.562,3.437v7.939h2.483a3.5,3.5,0,0,1,3.562,3.436V226.4h.868a4.512,4.512,0,1,1,0,9.023H123.5a3.614,3.614,0,0,1-1.4.3c-2.487.03-9.661.108-15.284.168l-3,.032v.053l-3.582-.015L96.723,236ZM120.3,226.4V193.152h-2.483a3.505,3.505,0,0,1-3.562-3.437v-7.938h-7.924a3.044,3.044,0,0,1-2.786-2.937v-5.532H97l-.017,5.94a2.655,2.655,0,0,1-2.427,2.512,2.686,2.686,0,0,1-.3.017H86.291v7.938a3.5,3.5,0,0,1-3.562,3.437H80.246V226.4Zm-16.737-8.886a2.321,2.321,0,0,1-2.321-2.319v-5.619a2.321,2.321,0,0,1,2.321-2.319h5.623a2.32,2.32,0,0,1,2.321,2.319V215.2a2.32,2.32,0,0,1-2.321,2.319Zm-12.374,0a2.321,2.321,0,0,1-2.321-2.319v-5.619a2.321,2.321,0,0,1,2.321-2.319h5.623a2.32,2.32,0,0,1,2.321,2.319V215.2a2.32,2.32,0,0,1-2.321,2.319Zm12.374-12.824a2.32,2.32,0,0,1-2.321-2.318v-5.62a2.32,2.32,0,0,1,2.321-2.318h5.623a2.319,2.319,0,0,1,2.321,2.318v5.62a2.319,2.319,0,0,1-2.321,2.318Zm-12.374,0a2.32,2.32,0,0,1-2.321-2.318v-5.62a2.32,2.32,0,0,1,2.321-2.318h5.623a2.319,2.319,0,0,1,2.321,2.318v5.62a2.319,2.319,0,0,1-2.321,2.318Z" transform="translate(-68.002 -168.001)"/>
</svg>
