<svg xmlns="http://www.w3.org/2000/svg" width="65.812" height="65.875" viewBox="0 0 65.812 65.875">
  <metadata><?xpacket begin="﻿" id="W5M0MpCehiHzreSzNTczkc9d"?>
<x:xmpmeta xmlns:x="adobe:ns:meta/" x:xmptk="Adobe XMP Core 5.6-c138 79.159824, 2016/09/14-01:09:01        ">
   <rdf:RDF xmlns:rdf="http://www.w3.org/1999/02/22-rdf-syntax-ns#">
      <rdf:Description rdf:about=""/>
   </rdf:RDF>
</x:xmpmeta>
                                                                                                    
                                                                                                    
                                                                                                    
                                                                                                    
                                                                                                    
                                                                                                    
                                                                                                    
                                                                                                    
                                                                                                    
                                                                                                    
                                                                                                    
                                                                                                    
                                                                                                    
                                                                                                    
                                                                                                    
                                                                                                    
                                                                                                    
                                                                                                    
                                                                                                    
                                                                                                    
                           
<?xpacket end="w"?></metadata>
<defs>
    <style>
      .cls-1 {
        fill-rule: evenodd;
      }
    </style>
  </defs>
  <path id="settings_black" class="cls-1" d="M388.959,683.983a32.619,32.619,0,0,1-3.8-.221,5.625,5.625,0,0,1-4.963-5.926,2.383,2.383,0,0,0-1.45-2.328,2.65,2.65,0,0,0-2.671.609,5.631,5.631,0,0,1-7.7.611,32.755,32.755,0,0,1-5.214-5.281,5.657,5.657,0,0,1,.619-7.63,2.4,2.4,0,0,0,.616-2.662,2.309,2.309,0,0,0-2.125-1.469,5.863,5.863,0,0,1-5.994-5,33.087,33.087,0,0,1,.015-7.5,5.619,5.619,0,0,1,5.6-4.979h0.1a2.685,2.685,0,0,0,2.545-1.444,2.383,2.383,0,0,0-.608-2.678,5.647,5.647,0,0,1-.606-7.7,32.679,32.679,0,0,1,5.326-5.272,5.655,5.655,0,0,1,7.634.637,2.674,2.674,0,0,0,2.663.618,2.4,2.4,0,0,0,1.461-2.307,5.66,5.66,0,0,1,5.007-5.8,32.863,32.863,0,0,1,7.405.019,5.635,5.635,0,0,1,4.971,5.925,2.391,2.391,0,0,0,1.449,2.336,2.65,2.65,0,0,0,2.664-.609,5.629,5.629,0,0,1,7.7-.62,32.709,32.709,0,0,1,5.221,5.277,5.66,5.66,0,0,1-.623,7.645,2.365,2.365,0,0,0,1.657,4.123,5.844,5.844,0,0,1,5.852,5h0a32.907,32.907,0,0,1-.014,7.5,5.67,5.67,0,0,1-5.865,4.972l-0.216,0a2.439,2.439,0,0,0-2.165,1.451,2.38,2.38,0,0,0,.609,2.679,5.643,5.643,0,0,1,.606,7.707,32.832,32.832,0,0,1-5.327,5.271,5.6,5.6,0,0,1-7.622-.628,2.687,2.687,0,0,0-2.677-.626,2.422,2.422,0,0,0-1.457,2.3,5.662,5.662,0,0,1-5.008,5.8A32.974,32.974,0,0,1,388.959,683.983Zm-0.733-5.7a0.134,0.134,0,0,1,0,.02A0.134,0.134,0,0,0,388.226,678.283Zm-0.139-2.364c0.545,0.018,1.09.019,1.639,0a10.457,10.457,0,0,1,6.268-7.69,10.783,10.783,0,0,1,9.865,1.107q0.632-.582,1.225-1.211a10.438,10.438,0,0,1-1.051-9.961,10.548,10.548,0,0,1,7.826-6.23c0.02-.568.021-1.139,0-1.71a10.389,10.389,0,0,1-7.71-6.277,10.5,10.5,0,0,1,1.078-9.87q-0.565-.612-1.168-1.182a10.74,10.74,0,0,1-9.929,1.073,10.461,10.461,0,0,1-6.232-7.838q-0.82-.03-1.641,0a10.471,10.471,0,0,1-6.269,7.693,10.767,10.767,0,0,1-9.863-1.109q-0.633.583-1.224,1.209a10.351,10.351,0,0,1-6.773,16.138c-0.021.578-.023,1.16,0,1.742a10.422,10.422,0,0,1,6.633,16.169q0.564,0.611,1.166,1.182a10.728,10.728,0,0,1,9.932-1.069A10.444,10.444,0,0,1,388.087,675.919Zm-2-.152h0Zm22.312-9.146,0,0Zm-38.919-.155,0.009,0.011Zm0.119-31.043a0.015,0.015,0,0,1,0,0A0.015,0.015,0,0,0,369.6,635.423ZM408.77,632.3l-0.009.007Zm-19.007-8.558s0,0.008,0,.012S389.763,623.75,389.763,623.746ZM389.039,660.2a9.113,9.113,0,1,1,9.1-9.113,9.118,9.118,0,0,1-9.1,9.113h0Z" transform="translate(-356.094 -618.094)"/>
</svg>
