<svg xmlns="http://www.w3.org/2000/svg" viewBox="0 0 72.99 63.014">
  <path id="add_feeders" data-name="add feeders" d="M363.294,432A2.279,2.279,0,0,1,361,429.73V412.194a2.28,2.28,0,0,1,2.293-2.267h20.636a1.394,1.394,0,0,1,1.374,1.246c.639,6.095,5.848,8.529,12.175,8.529,6.343,0,11.552-2.435,12.176-8.529a1.379,1.379,0,0,1,1.374-1.246v.015H431.7a2.28,2.28,0,0,1,2.293,2.266v17.521A2.28,2.28,0,0,1,431.7,432Zm30.424-26.635V393.128H381.336a3.972,3.972,0,1,1,0-7.943h12.381V372.952a4.019,4.019,0,0,1,8.038,0v12.234h12.382a3.972,3.972,0,1,1,0,7.943H401.756v12.233a4.019,4.019,0,0,1-8.038,0Z" transform="translate(-361.002 -368.981)"/>
</svg>
