<svg xmlns="http://www.w3.org/2000/svg" width="59" height="66" viewBox="0 0 59 66">
  <metadata><?xpacket begin="﻿" id="W5M0MpCehiHzreSzNTczkc9d"?>
<x:xmpmeta xmlns:x="adobe:ns:meta/" x:xmptk="Adobe XMP Core 5.6-c138 79.159824, 2016/09/14-01:09:01        ">
   <rdf:RDF xmlns:rdf="http://www.w3.org/1999/02/22-rdf-syntax-ns#">
      <rdf:Description rdf:about=""/>
   </rdf:RDF>
</x:xmpmeta>
                                                                                                    
                                                                                                    
                                                                                                    
                                                                                                    
                                                                                                    
                                                                                                    
                                                                                                    
                                                                                                    
                                                                                                    
                                                                                                    
                                                                                                    
                                                                                                    
                                                                                                    
                                                                                                    
                                                                                                    
                                                                                                    
                                                                                                    
                                                                                                    
                                                                                                    
                                                                                                    
                           
<?xpacket end="w"?></metadata>
<defs>
    <style>
      .cls-1 {
        fill: #161616;
        fill-rule: evenodd;
      }
    </style>
  </defs>
  <path id="work_order_report" class="cls-1" d="M317.02,89H265.974a3.986,3.986,0,0,0-3.982,3.99v58.024a3.986,3.986,0,0,0,3.982,3.99H317.02a3.986,3.986,0,0,0,3.982-3.99V92.988A3.986,3.986,0,0,0,317.02,89Zm-3.981,58.025H269.955V96.978h43.084v50.044Zm-26.376-38.014h18.414a1.806,1.806,0,0,0,0-3.611H286.663A1.806,1.806,0,0,0,286.663,109.008Zm0,14.342h18.414a1.806,1.806,0,0,0,0-3.611H286.663A1.806,1.806,0,0,0,286.663,123.35Zm0,14.341h18.414a1.806,1.806,0,0,0,0-3.611H286.663A1.806,1.806,0,0,0,286.663,137.691Zm-8.711-28.683h2.9a1.806,1.806,0,0,0,0-3.611h-2.9A1.806,1.806,0,0,0,277.952,109.008Zm0,14.342h2.9a1.806,1.806,0,0,0,0-3.611h-2.9A1.806,1.806,0,0,0,277.952,123.35Zm0,14.341h2.9a1.806,1.806,0,0,0,0-3.611h-2.9A1.806,1.806,0,0,0,277.952,137.691Z" transform="translate(-262 -89)"/>
</svg>
