<svg xmlns="http://www.w3.org/2000/svg" viewBox="0 0 56.002 66.723">
  <path id="bookmark" d="M270.174,434.718A5.374,5.374,0,0,1,268,430.393V375.224a6.161,6.161,0,0,1,6.076-6.229h43.852A6.159,6.159,0,0,1,324,375.224v55.169a5.375,5.375,0,0,1-2.174,4.326,5.174,5.174,0,0,1-3.049,1,5.107,5.107,0,0,1-1.586-.252l-.4-.159L296,425.711l-21.2,9.754a5.056,5.056,0,0,1-1.582.253A5.16,5.16,0,0,1,270.174,434.718ZM297.6,418.155l.393.156,18.5,8.537V376.561H275.5v50.288l18.9-8.693a5.063,5.063,0,0,1,3.2,0Zm4.932-10.378-6.284-3.328a.539.539,0,0,0-.5,0l-6.278,3.328a.373.373,0,0,1-.54-.394l1.2-7.048a.549.549,0,0,0-.156-.484l-4.837-4.753a.545.545,0,0,1,.3-.928l6.683-.978a.542.542,0,0,0,.408-.3l2.988-6.1a.537.537,0,0,1,.967,0l2.994,6.11a.532.532,0,0,0,.4.293l7.024,1.028a.374.374,0,0,1,.206.637l-5.08,4.992a.548.548,0,0,0-.156.484l1.2,7.05a.372.372,0,0,1-.364.438A.364.364,0,0,1,302.534,407.777Z" transform="translate(-267.999 -368.995)"/>
</svg>
