<svg xmlns="http://www.w3.org/2000/svg" viewBox="0 0 53.994 66.724">
  <path id="map_results" data-name="map results" d="M376.961,347.991a6.655,6.655,0,0,1-6.96-7.014q0-22.224,0-44.447a6.879,6.879,0,0,1,7.184-7.238h4.048v6.746h-4.441v45.147h40.4V296.095h-4.4v-6.908a43.138,43.138,0,0,1,6.176.4,6.6,6.6,0,0,1,5.014,6.668c.015,6.679.005,13.358.005,20.037q0,12.416,0,24.833a6.625,6.625,0,0,1-6.82,6.863q-10.052,0-20.1,0T376.961,347.991Zm10.876-15.7a2.005,2.005,0,0,1,0-4.01h18.32a2.005,2.005,0,0,1,0,4.01Zm0-10.11a2.005,2.005,0,0,1,0-4.01h18.32a2.005,2.005,0,0,1,0,4.01Zm0-10.111a2.005,2.005,0,0,1,0-4.01h18.32a2.005,2.005,0,0,1,0,4.01Zm9.13-11.484h-4.113q-3.6,0-7.2,0a1.9,1.9,0,0,1-2.159-2.158c-.006-2.843.008-5.686-.012-8.53a.694.694,0,0,1,.548-.806c1.418-.475,2.825-.988,4.22-1.528a1.853,1.853,0,0,0,.777-.633c.436-.609.8-1.266,1.206-1.9a7.775,7.775,0,0,1,13.337.049,5.969,5.969,0,0,0,3.963,3.189c.839.177,1.626.583,2.451.846a.609.609,0,0,1,.513.687c-.018,2.938,0,5.875-.013,8.812a1.9,1.9,0,0,1-2.072,1.975h-11.45Zm-.057-15.139a3.762,3.762,0,1,0,.025,0Z" transform="translate(-370 -281.271)"/>
</svg>
