<svg xmlns="http://www.w3.org/2000/svg" width="65.719" height="67" viewBox="0 0 65.719 67">
  <metadata><?xpacket begin="﻿" id="W5M0MpCehiHzreSzNTczkc9d"?>
<x:xmpmeta xmlns:x="adobe:ns:meta/" x:xmptk="Adobe XMP Core 5.6-c138 79.159824, 2016/09/14-01:09:01        ">
   <rdf:RDF xmlns:rdf="http://www.w3.org/1999/02/22-rdf-syntax-ns#">
      <rdf:Description rdf:about=""/>
   </rdf:RDF>
</x:xmpmeta>
                                                                                                    
                                                                                                    
                                                                                                    
                                                                                                    
                                                                                                    
                                                                                                    
                                                                                                    
                                                                                                    
                                                                                                    
                                                                                                    
                                                                                                    
                                                                                                    
                                                                                                    
                                                                                                    
                                                                                                    
                                                                                                    
                                                                                                    
                                                                                                    
                                                                                                    
                                                                                                    
                           
<?xpacket end="w"?></metadata>
<defs>
    <style>
      .cls-1 {
        fill: #161616;
        fill-rule: evenodd;
      }
    </style>
  </defs>
  <path id="download_gis_data" class="cls-1" d="M416.374,473.222l-54.567.007c-3.15,0-5.526,1.952-5.526,4.542v4.686c0,2.59,2.376,4.543,5.526,4.543h54.568c3.15,0,5.525-1.953,5.525-4.542v-4.694C421.9,475.174,419.525,473.222,416.374,473.222Zm-48.467-7.08a3.293,3.293,0,0,0,2.21.849,3.329,3.329,0,0,0,.7-0.079,3.27,3.27,0,0,0,1.911-.822l10.468-9.462a3.247,3.247,0,0,0,.218-4.608,3.3,3.3,0,0,0-4.641-.217l-5.245,4.742V424.206a3.285,3.285,0,0,0-6.57,0v32.257l-5.1-4.608a3.3,3.3,0,0,0-4.64.217,3.246,3.246,0,0,0,.217,4.608Zm35.151-8.54a18.805,18.805,0,1,0-18.937-18.8A18.872,18.872,0,0,0,403.058,457.6Zm8-5.037a16.248,16.248,0,0,1-7.77,1.965c-0.05,0-.1-0.007-0.149-0.007a18.517,18.517,0,0,1-4.963-7.144,43.863,43.863,0,0,0,12.879-3.137A58.833,58.833,0,0,1,411.053,452.565Zm8.466-14.157a16.013,16.013,0,0,1-5.242,11.839,58.19,58.19,0,0,0-.243-7.513,21.511,21.511,0,0,0,5.476-4.486C419.511,438.3,419.519,438.354,419.519,438.408Zm-0.678-4.593a16.74,16.74,0,0,1-5.266,5.5,35.8,35.8,0,0,0-7.126-16.721A16.209,16.209,0,0,1,418.841,433.815Zm-23.657-9.367a16.189,16.189,0,0,1,6.863-2.1c2.815,2.695,7.174,8.381,8.651,18.609a40.6,40.6,0,0,1-13.616,3.377C394.869,436.949,394.968,428.484,395.184,424.448Zm2.979,29.251a16.24,16.24,0,0,1-8.137-6c0.471,0.01.961,0.017,1.482,0.017,1.05,0,2.2-.026,3.406-0.086A25.739,25.739,0,0,0,398.163,453.7Zm-11.116-15.291a16.01,16.01,0,0,1,4.917-11.546,62.3,62.3,0,0,0,1.93,17.676c-2.217.087-4.165,0.054-5.629-.012A15.975,15.975,0,0,1,387.047,438.408Z" transform="translate(-356.281 -420)"/>
</svg>
