<svg xmlns="http://www.w3.org/2000/svg" width="59.906" height="66.031" viewBox="0 0 59.906 66.031">
  <metadata><?xpacket begin="﻿" id="W5M0MpCehiHzreSzNTczkc9d"?>
<x:xmpmeta xmlns:x="adobe:ns:meta/" x:xmptk="Adobe XMP Core 5.6-c138 79.159824, 2016/09/14-01:09:01        ">
   <rdf:RDF xmlns:rdf="http://www.w3.org/1999/02/22-rdf-syntax-ns#">
      <rdf:Description rdf:about=""/>
   </rdf:RDF>
</x:xmpmeta>
                                                                                                    
                                                                                                    
                                                                                                    
                                                                                                    
                                                                                                    
                                                                                                    
                                                                                                    
                                                                                                    
                                                                                                    
                                                                                                    
                                                                                                    
                                                                                                    
                                                                                                    
                                                                                                    
                                                                                                    
                                                                                                    
                                                                                                    
                                                                                                    
                                                                                                    
                                                                                                    
                           
<?xpacket end="w"?></metadata>
<defs>
    <style>
      .cls-1 {
        fill-rule: evenodd;
      }
    </style>
  </defs>
  <path id="log_feeder_black" data-name="log feeder black" class="cls-1" d="M57.657,802.727H36.93V752.918h43V774.1a3.973,3.973,0,0,0,7.947,0V748.946a3.972,3.972,0,0,0-3.973-3.971H32.956a3.972,3.972,0,0,0-3.973,3.971V806.7a3.973,3.973,0,0,0,3.973,3.972h24.7A3.972,3.972,0,1,0,57.657,802.727ZM74.938,763.1a1.8,1.8,0,0,0-1.8-1.8H54.762a1.8,1.8,0,1,0,0,3.593H73.139A1.8,1.8,0,0,0,74.938,763.1ZM54.762,775.447a1.8,1.8,0,1,0,0,3.593h7.861a1.8,1.8,0,1,0,0-3.593H54.762ZM48.968,761.3h-2.9a1.8,1.8,0,1,0,0,3.593h2.9A1.8,1.8,0,1,0,48.968,761.3Zm0,14.274h-2.9a1.8,1.8,0,1,0,0,3.593h2.9A1.8,1.8,0,1,0,48.968,775.572Zm-0.331,14.274h-2.9a1.8,1.8,0,1,0,0,3.594h2.9A1.8,1.8,0,1,0,48.636,789.846ZM88.809,793.2a0.971,0.971,0,0,0-.9-0.627,0.945,0.945,0,0,0-.294-0.065c-2.454-1.152-5.362-4.656-7.378-7.481h2.136a1.8,1.8,0,1,0,0-3.593H71.228V781.1a1.8,1.8,0,0,0-3.6,0v0.337H56.492a1.8,1.8,0,1,0,0,3.593h4.931a31.106,31.106,0,0,0,6.209,6.347v17.82a1.8,1.8,0,0,0,3.6,0V793.634a20.063,20.063,0,0,0,9.228,2.285,22.172,22.172,0,0,0,7.484-1.373c0.034-.009.066-0.02,0.1-0.032,0.066-.024.13-0.039,0.2-0.064A0.974,0.974,0,0,0,88.809,793.2Zm-4.231-.353c-5.446-.116-10.017-4.65-12.553-7.82h5.837A38.333,38.333,0,0,0,84.578,792.845Zm-20.754-7.82h3.808v3.958A28.221,28.221,0,0,1,63.824,785.025Zm7.4,2.132a23.013,23.013,0,0,0,9.041,6.825,18.387,18.387,0,0,1-9.041-2.469v-4.356Z" transform="translate(-28.969 -744.969)"/>
</svg>
