<svg xmlns="http://www.w3.org/2000/svg" width="62" height="67" viewBox="0 0 62 67">
  <metadata><?xpacket begin="﻿" id="W5M0MpCehiHzreSzNTczkc9d"?>
<x:xmpmeta xmlns:x="adobe:ns:meta/" x:xmptk="Adobe XMP Core 5.6-c138 79.159824, 2016/09/14-01:09:01        ">
   <rdf:RDF xmlns:rdf="http://www.w3.org/1999/02/22-rdf-syntax-ns#">
      <rdf:Description rdf:about=""/>
   </rdf:RDF>
</x:xmpmeta>
                                                                                                    
                                                                                                    
                                                                                                    
                                                                                                    
                                                                                                    
                                                                                                    
                                                                                                    
                                                                                                    
                                                                                                    
                                                                                                    
                                                                                                    
                                                                                                    
                                                                                                    
                                                                                                    
                                                                                                    
                                                                                                    
                                                                                                    
                                                                                                    
                                                                                                    
                                                                                                    
                           
<?xpacket end="w"?></metadata>
<defs>
    <style>
      .cls-1 {
        fill: #161616;
        fill-rule: evenodd;
      }
    </style>
  </defs>
  <path id="print" class="cls-1" d="M308.98,434.937h-8.668v-7.922A4.016,4.016,0,0,0,296.3,423H267.7a4.016,4.016,0,0,0-4.014,4.016v7.922h-8.668A4.015,4.015,0,0,0,251,438.953v32.7a4.014,4.014,0,0,0,4.013,4.015h12.6v12.507a1.816,1.816,0,0,0,1.816,1.817h25.136a1.816,1.816,0,0,0,1.816-1.817V475.667h12.6a4.015,4.015,0,0,0,4.014-4.015v-32.7A4.016,4.016,0,0,0,308.98,434.937Zm-37.27-3.906h20.574v3.906H271.71v-3.906Zm21.039,55.326h-21.5V461.791h21.5v24.566Zm12.217-18.721h-8.585v-6.247h2.926a1.818,1.818,0,0,0,0-3.635h-34.62a1.818,1.818,0,0,0,0,3.635h2.926v6.247h-8.585V442.969h45.938v24.667Zm-28.037,7.994h10.137a1.818,1.818,0,0,0,0-3.635H276.929A1.818,1.818,0,0,0,276.929,475.63Zm0,6.275h10.137a1.818,1.818,0,0,0,0-3.635H276.929A1.818,1.818,0,0,0,276.929,481.905Zm18.693-31.187h4.816a1.817,1.817,0,0,0,0-3.634h-4.816A1.817,1.817,0,0,0,295.622,450.718Zm-18.693,18.554h10.137a1.818,1.818,0,0,0,0-3.635H276.929A1.818,1.818,0,0,0,276.929,469.272Z" transform="translate(-251 -423)"/>
</svg>
