<svg xmlns="http://www.w3.org/2000/svg" viewBox="0 0 55.896 66">
  <path id="structure" d="M162.845,124.5V89.764c-7.239,1.866-18.16,2.56-20.884,2.709l-.1,0a1.81,1.81,0,0,1-.1-3.617c6.193-.339,15.788-1.334,21.082-2.813v-.616a18.445,18.445,0,0,1-9.356-8.107c-3.182,4.836-10.223,6.964-10.615,7.079a1.81,1.81,0,0,1-1.024-3.471c.088-.027,7.689-2.337,9.27-6.935h-.253a3.984,3.984,0,0,1-2.248-7.275V64.81a1.81,1.81,0,0,1,3.621,0v1.216h2.132V64.81a1.81,1.81,0,0,1,3.621,0v1.216h19.2V64.81a1.81,1.81,0,0,1,3.621,0v1.216h2.132V64.81a1.81,1.81,0,0,1,3.621,0v2.309a3.984,3.984,0,0,1-2.437,6.864c1.589,4.558,9.178,6.919,9.264,6.944a1.81,1.81,0,1,1-1.021,3.473c-.392-.115-7.432-2.244-10.615-7.079a18.451,18.451,0,0,1-9.912,8.315v.5c4.865,1.7,15.643,2.851,22.387,3.22a1.81,1.81,0,0,1-.1,3.617l-.1,0c-2.893-.158-15.035-.932-22.189-3.071v34.6a4.5,4.5,0,0,1-9,0Zm9-42.836v.075a14.923,14.923,0,0,0,7.6-7.745h-6.705a37.285,37.285,0,0,1-2.6,4.139A4.492,4.492,0,0,1,171.85,81.664Zm-9-.187a4.49,4.49,0,0,1,1.539-3.205,43.719,43.719,0,0,1-2.932-4.278H155.8A14.944,14.944,0,0,0,162.849,81.477Z" transform="translate(-140.052 -63)"/>
</svg>
