<svg xmlns="http://www.w3.org/2000/svg" viewBox="0 0 33.711 67.002">
  <path id="conductor" d="M90.628,130a5.28,5.28,0,0,1-3.687-1.472,4.54,4.54,0,0,1-1.387-3.254V89.608a4.913,4.913,0,0,1,5.072-4.727h.81c-.709-3.723-2.146-9.2-4.392-11.851a2.477,2.477,0,0,1-.517-2.194,5.963,5.963,0,0,0-2.632-2.33,1.1,1.1,0,0,1-.721-1.39,1.118,1.118,0,0,1,1.4-.713,7.477,7.477,0,0,1,3.454,2.709,2.547,2.547,0,0,1,2.883.711c3.4,4.013,5.018,11.332,5.653,15.058h1.052V70.755a2.493,2.493,0,0,1,1.369-2.221V64.1a1.117,1.117,0,0,1,2.233,0V68.5a2.5,2.5,0,0,1,1.446,2.258V84.881h1.1c.635-3.726,2.255-11.045,5.652-15.057A2.54,2.54,0,0,1,112,69.011a7.377,7.377,0,0,1,3.377-2.608,1.119,1.119,0,0,1,1.4.713,1.1,1.1,0,0,1-.721,1.39,5.433,5.433,0,0,0-2.372,1.961,2.473,2.473,0,0,1-.395,2.563c-2.244,2.65-3.682,8.129-4.39,11.852h.162a4.914,4.914,0,0,1,5.072,4.727v35.561A4.919,4.919,0,0,1,109.1,129.9L90.658,130Zm1.219-6.231,15.994-.092V91.1H91.847Zm10.015-4.755V97.8a1.828,1.828,0,0,1,3.655,0v21.219a1.828,1.828,0,0,1-3.655,0Z" transform="translate(-83.121 -62.999)"/>
</svg>
