<svg xmlns="http://www.w3.org/2000/svg" viewBox="0 0 77.767 66.987">
  <defs>
    <style>
      .cls-1 {
        fill: #3995fd;
      }
    </style>
  </defs>
  <path id="feeder" class="cls-1" d="M240.636,231.963V194.309a67.985,67.985,0,0,1-13.688-12.783H215.015a4.025,4.025,0,0,1,0-8.05h25.62v-.452a4.015,4.015,0,1,1,8.031,0v.452h25.622a4.025,4.025,0,0,1,0,8.05h-5.125c4.325,5.556,10.97,13.093,16.883,15.633a1.99,1.99,0,0,1,1.487,3.691,54.421,54.421,0,0,1-17.608,3.045A48.954,48.954,0,0,1,248.666,199v32.962a4.015,4.015,0,1,1-8.031,0Zm30.3-31.683c-9.475-2.79-17.217-9.577-22.268-15.124v9.981A45.483,45.483,0,0,0,270.935,200.28Zm9.212-2.375c-6.144-4.389-12.088-11.7-15.566-16.38h-14.2C256.4,188.36,267.235,198.066,280.147,197.905Zm-39.511-7.868v-8.512h-9.048A62.169,62.169,0,0,0,240.636,190.038Z" transform="translate(-211 -169)"/>
</svg>
